# xmcd
#
# Track frame offsets: 
#        150
#        23060
#        50662
#        75620
#        104900
#        126845
#        151631
#        170082
#        216445
#        240726
#        274875
#        299069
#        326515
#
# Disc length: 4776 seconds
#
# Revision: 0
# Processed by: cddbd v1.5.2PL0 Copyright (c) Steve Scherf et al.
# Submitted via: ExactAudioCopy v1.3
#
DISCID=c612a60d
DTITLE=Various Artist - Akella Presents - vol. 189 - Blues! Live!  CD
DTITLE=1
DYEAR=2019
DGENRE=Blues
TTITLE0=Tom Principato - Call The Law
TTITLE1=Magic Slim and The Teardrops - Come On In This House
TTITLE2=Peter Stokstad Band - Ain't Nobody's Business
TTITLE3=Ben Granfelt - Wayward Child
TTITLE4=The Black Sorrows - Do I Move You
TTITLE5=Sugar Queen And The Straight Blues Band - Wanna Take My Man
TTITLE6=Big Pete - This Time No Lies
TTITLE7=Johnny Neel - Murdered By Love
TTITLE8=Tommy Lepson and The Lazy Boys - Yellow Moon
TTITLE9=The Jimmys - Lonesome Whistle Blues
TTITLE10=Ron Evans Group - Mind of My Own
TTITLE11=Paul Gemmell and The Black Magic Blues Band - You're Haunting M
TTITLE11=e
TTITLE12=Lost In Detroit - I Want To Make Love To You
EXTD=
EXTT0=
EXTT1=
EXTT2=
EXTT3=
EXTT4=
EXTT5=
EXTT6=
EXTT7=
EXTT8=
EXTT9=
EXTT10=
EXTT11=
EXTT12=
PLAYORDER=
